<svg xmlns="http://www.w3.org/2000/svg" xmlns:xlink="http://www.w3.org/1999/xlink" version="1.1" id="Layer_1" x="0px" y="0px" width="100px" height="100px" viewBox="0 0 100 100" enable-background="new 0 0 100 100" xml:space="preserve">
<path d="M20.841,29.748h16.085c5.499,0,7.701,16.497,7.701,21.86c0,5.361-3.576,5.361-7.012,10.859  c-3.438,5.499,0.824,30.66,1.375,32.035c0.55,1.374,3.71,12.649,12.081-1.65c8.365-14.298,24.764-16.635,31.639-16.495  c6.876,0.136,8.111-4.952,8.524-7.149c0.413-2.201-12.373-17.325-12.787-17.737c-0.41-0.412-1.1-2.199-1.1-2.199  c-0.263-1.768-0.511-3.38-0.75-4.911c-2.819,2.869-8.915,7.914-16.457,7.149c-7.681-0.777,2.261-15.337-0.151-26.755  c0,0,3.159,4.911,1.044,13.891c-2.114,8.98-0.572,10,2.569,9.517c7.842-1.207,12.215-5.531,11.28-13.833  c-1.184-6.243-2.013-9.031-2.621-10.769c-0.962-2.749-4.949-6.873-4.949-6.873c-0.276-2.888-1.514-8.25-3.988-11.549  C60.849,1.838,48.2,0.463,41.464,0.602C34.727,0.739,31.29,5.688,29.917,6.236C28.541,6.785,17.541,6.649,13.28,7.2  c-4.262,0.55-1.514,6.46-1.514,6.46C12.591,30.847,20.841,29.748,20.841,29.748z"/>
</svg>